<mxfile host="app.diagrams.net" modified="2023-11-12T20:28:10.714Z" agent="Mozilla/5.0 (Windows NT 10.0; Win64; x64) AppleWebKit/537.36 (KHTML, like Gecko) Chrome/119.0.0.0 Safari/537.36" etag="IxPRzu605JxV2vHlHn8n" version="22.1.0" type="github">
  <diagram name="Page-1" id="pPup7gwMJS2yfka10D1I">
    <mxGraphModel dx="1259" dy="673" grid="1" gridSize="10" guides="1" tooltips="1" connect="1" arrows="1" fold="1" page="1" pageScale="1" pageWidth="1169" pageHeight="827" math="0" shadow="0">
      <root>
        <mxCell id="0" />
        <mxCell id="1" parent="0" />
        <mxCell id="XKte78jzHV2wWYuJImMG-19" style="edgeStyle=orthogonalEdgeStyle;rounded=0;orthogonalLoop=1;jettySize=auto;html=1;entryX=0;entryY=0.5;entryDx=0;entryDy=0;" edge="1" parent="1" source="XKte78jzHV2wWYuJImMG-1" target="XKte78jzHV2wWYuJImMG-10">
          <mxGeometry relative="1" as="geometry" />
        </mxCell>
        <mxCell id="XKte78jzHV2wWYuJImMG-40" style="edgeStyle=orthogonalEdgeStyle;rounded=0;orthogonalLoop=1;jettySize=auto;html=1;" edge="1" parent="1" source="XKte78jzHV2wWYuJImMG-1" target="XKte78jzHV2wWYuJImMG-11">
          <mxGeometry relative="1" as="geometry" />
        </mxCell>
        <mxCell id="XKte78jzHV2wWYuJImMG-41" style="edgeStyle=orthogonalEdgeStyle;rounded=0;orthogonalLoop=1;jettySize=auto;html=1;entryX=0;entryY=0.5;entryDx=0;entryDy=0;" edge="1" parent="1" source="XKte78jzHV2wWYuJImMG-1" target="XKte78jzHV2wWYuJImMG-12">
          <mxGeometry relative="1" as="geometry" />
        </mxCell>
        <mxCell id="XKte78jzHV2wWYuJImMG-1" value="Sample data" style="shape=note;whiteSpace=wrap;html=1;backgroundOutline=1;darkOpacity=0.05;fillColor=#fff2cc;strokeColor=#d6b656;" vertex="1" parent="1">
          <mxGeometry x="190" y="329" width="80" height="100" as="geometry" />
        </mxCell>
        <mxCell id="XKte78jzHV2wWYuJImMG-42" style="edgeStyle=orthogonalEdgeStyle;rounded=0;orthogonalLoop=1;jettySize=auto;html=1;" edge="1" parent="1" source="XKte78jzHV2wWYuJImMG-2" target="XKte78jzHV2wWYuJImMG-9">
          <mxGeometry relative="1" as="geometry" />
        </mxCell>
        <mxCell id="XKte78jzHV2wWYuJImMG-2" value="Marginal data" style="shape=note;whiteSpace=wrap;html=1;backgroundOutline=1;darkOpacity=0.05;fillColor=#fff2cc;strokeColor=#d6b656;" vertex="1" parent="1">
          <mxGeometry x="190" y="100" width="80" height="100" as="geometry" />
        </mxCell>
        <mxCell id="XKte78jzHV2wWYuJImMG-21" style="edgeStyle=orthogonalEdgeStyle;rounded=0;orthogonalLoop=1;jettySize=auto;html=1;" edge="1" parent="1" source="XKte78jzHV2wWYuJImMG-9" target="XKte78jzHV2wWYuJImMG-13">
          <mxGeometry relative="1" as="geometry" />
        </mxCell>
        <mxCell id="XKte78jzHV2wWYuJImMG-9" value="Constraints" style="rounded=0;whiteSpace=wrap;html=1;fillColor=#d5e8d4;strokeColor=#82b366;" vertex="1" parent="1">
          <mxGeometry x="340" y="120" width="120" height="60" as="geometry" />
        </mxCell>
        <mxCell id="XKte78jzHV2wWYuJImMG-20" style="edgeStyle=orthogonalEdgeStyle;rounded=0;orthogonalLoop=1;jettySize=auto;html=1;entryX=0;entryY=0.5;entryDx=0;entryDy=0;" edge="1" parent="1" source="XKte78jzHV2wWYuJImMG-10" target="XKte78jzHV2wWYuJImMG-13">
          <mxGeometry relative="1" as="geometry" />
        </mxCell>
        <mxCell id="XKte78jzHV2wWYuJImMG-10" value="BN connect Main person" style="rounded=1;whiteSpace=wrap;html=1;fillColor=#d5e8d4;strokeColor=#82b366;" vertex="1" parent="1">
          <mxGeometry x="350" y="249" width="120" height="60" as="geometry" />
        </mxCell>
        <mxCell id="XKte78jzHV2wWYuJImMG-25" style="edgeStyle=orthogonalEdgeStyle;rounded=0;orthogonalLoop=1;jettySize=auto;html=1;entryX=0.5;entryY=0;entryDx=0;entryDy=0;" edge="1" parent="1" source="XKte78jzHV2wWYuJImMG-11" target="XKte78jzHV2wWYuJImMG-17">
          <mxGeometry relative="1" as="geometry" />
        </mxCell>
        <mxCell id="XKte78jzHV2wWYuJImMG-11" value="BN connect Main person to Spouse" style="rounded=1;whiteSpace=wrap;html=1;fillColor=#d5e8d4;strokeColor=#82b366;" vertex="1" parent="1">
          <mxGeometry x="340" y="389" width="120" height="60" as="geometry" />
        </mxCell>
        <mxCell id="XKte78jzHV2wWYuJImMG-39" style="edgeStyle=orthogonalEdgeStyle;rounded=0;orthogonalLoop=1;jettySize=auto;html=1;entryX=0.5;entryY=0;entryDx=0;entryDy=0;" edge="1" parent="1" source="XKte78jzHV2wWYuJImMG-12" target="XKte78jzHV2wWYuJImMG-34">
          <mxGeometry relative="1" as="geometry" />
        </mxCell>
        <mxCell id="XKte78jzHV2wWYuJImMG-12" value="BN connect Main person to Others" style="rounded=1;whiteSpace=wrap;html=1;fillColor=#d5e8d4;strokeColor=#82b366;" vertex="1" parent="1">
          <mxGeometry x="340" y="630" width="120" height="60" as="geometry" />
        </mxCell>
        <mxCell id="XKte78jzHV2wWYuJImMG-22" style="edgeStyle=orthogonalEdgeStyle;rounded=0;orthogonalLoop=1;jettySize=auto;html=1;entryX=0;entryY=0.5;entryDx=0;entryDy=0;" edge="1" parent="1" source="XKte78jzHV2wWYuJImMG-13" target="XKte78jzHV2wWYuJImMG-14">
          <mxGeometry relative="1" as="geometry" />
        </mxCell>
        <mxCell id="XKte78jzHV2wWYuJImMG-23" style="edgeStyle=orthogonalEdgeStyle;rounded=0;orthogonalLoop=1;jettySize=auto;html=1;" edge="1" parent="1" source="XKte78jzHV2wWYuJImMG-13" target="XKte78jzHV2wWYuJImMG-15">
          <mxGeometry relative="1" as="geometry" />
        </mxCell>
        <mxCell id="XKte78jzHV2wWYuJImMG-13" value="Rejection sampling" style="ellipse;whiteSpace=wrap;html=1;aspect=fixed;fillColor=#f8cecc;strokeColor=#b85450;" vertex="1" parent="1">
          <mxGeometry x="500" y="219" width="80" height="80" as="geometry" />
        </mxCell>
        <mxCell id="XKte78jzHV2wWYuJImMG-14" value="Synthetic households" style="rounded=0;whiteSpace=wrap;html=1;fillColor=#dae8fc;strokeColor=#6c8ebf;" vertex="1" parent="1">
          <mxGeometry x="630" y="179" width="120" height="60" as="geometry" />
        </mxCell>
        <mxCell id="XKte78jzHV2wWYuJImMG-24" style="edgeStyle=orthogonalEdgeStyle;rounded=0;orthogonalLoop=1;jettySize=auto;html=1;entryX=0.5;entryY=0;entryDx=0;entryDy=0;" edge="1" parent="1" source="XKte78jzHV2wWYuJImMG-15" target="XKte78jzHV2wWYuJImMG-17">
          <mxGeometry relative="1" as="geometry" />
        </mxCell>
        <mxCell id="XKte78jzHV2wWYuJImMG-36" style="edgeStyle=orthogonalEdgeStyle;rounded=0;orthogonalLoop=1;jettySize=auto;html=1;" edge="1" parent="1" source="XKte78jzHV2wWYuJImMG-15" target="XKte78jzHV2wWYuJImMG-34">
          <mxGeometry relative="1" as="geometry">
            <Array as="points">
              <mxPoint x="690" y="359" />
              <mxPoint x="690" y="600" />
              <mxPoint x="540" y="600" />
            </Array>
          </mxGeometry>
        </mxCell>
        <mxCell id="XKte78jzHV2wWYuJImMG-15" value="Synthetic Main persons" style="rounded=0;whiteSpace=wrap;html=1;fillColor=#dae8fc;strokeColor=#6c8ebf;" vertex="1" parent="1">
          <mxGeometry x="760" y="329" width="120" height="60" as="geometry" />
        </mxCell>
        <mxCell id="XKte78jzHV2wWYuJImMG-26" style="edgeStyle=orthogonalEdgeStyle;rounded=0;orthogonalLoop=1;jettySize=auto;html=1;" edge="1" parent="1" source="XKte78jzHV2wWYuJImMG-17" target="XKte78jzHV2wWYuJImMG-18">
          <mxGeometry relative="1" as="geometry" />
        </mxCell>
        <mxCell id="XKte78jzHV2wWYuJImMG-17" value="Rejection sampling" style="ellipse;whiteSpace=wrap;html=1;aspect=fixed;fillColor=#f8cecc;strokeColor=#b85450;" vertex="1" parent="1">
          <mxGeometry x="505" y="379" width="80" height="80" as="geometry" />
        </mxCell>
        <mxCell id="XKte78jzHV2wWYuJImMG-18" value="Synthetic Spouse for each main persons" style="rounded=0;whiteSpace=wrap;html=1;fillColor=#dae8fc;strokeColor=#6c8ebf;" vertex="1" parent="1">
          <mxGeometry x="485" y="489" width="120" height="60" as="geometry" />
        </mxCell>
        <mxCell id="XKte78jzHV2wWYuJImMG-30" value="&lt;font style=&quot;font-size: 41px;&quot;&gt;...&lt;/font&gt;" style="text;html=1;strokeColor=none;fillColor=none;align=center;verticalAlign=middle;whiteSpace=wrap;rounded=0;" vertex="1" parent="1">
          <mxGeometry x="315" y="530" width="190" height="30" as="geometry" />
        </mxCell>
        <mxCell id="XKte78jzHV2wWYuJImMG-38" style="edgeStyle=orthogonalEdgeStyle;rounded=0;orthogonalLoop=1;jettySize=auto;html=1;entryX=0.5;entryY=0;entryDx=0;entryDy=0;" edge="1" parent="1" source="XKte78jzHV2wWYuJImMG-34" target="XKte78jzHV2wWYuJImMG-35">
          <mxGeometry relative="1" as="geometry" />
        </mxCell>
        <mxCell id="XKte78jzHV2wWYuJImMG-34" value="Rejection sampling" style="ellipse;whiteSpace=wrap;html=1;aspect=fixed;fillColor=#f8cecc;strokeColor=#b85450;" vertex="1" parent="1">
          <mxGeometry x="505" y="630" width="80" height="80" as="geometry" />
        </mxCell>
        <mxCell id="XKte78jzHV2wWYuJImMG-35" value="Synthetic Spouse for each main persons" style="rounded=0;whiteSpace=wrap;html=1;fillColor=#dae8fc;strokeColor=#6c8ebf;" vertex="1" parent="1">
          <mxGeometry x="485" y="740" width="120" height="60" as="geometry" />
        </mxCell>
        <mxCell id="XKte78jzHV2wWYuJImMG-43" style="edgeStyle=orthogonalEdgeStyle;rounded=0;orthogonalLoop=1;jettySize=auto;html=1;exitX=0.5;exitY=1;exitDx=0;exitDy=0;" edge="1" parent="1" source="XKte78jzHV2wWYuJImMG-30" target="XKte78jzHV2wWYuJImMG-30">
          <mxGeometry relative="1" as="geometry" />
        </mxCell>
      </root>
    </mxGraphModel>
  </diagram>
</mxfile>
